# xmcd
#
# Track frame offsets:
# 182
# 20257
# 37882
# 59707
# 78607
# 93982
# 111982
# 128032
# 149107
# 163357
# 178357
# 195982
# 216757
# 232282
# 255082
# 270307
#
# Disc length: 3936 seconds
#
#
# Revision: 0
# Processed by: cddbd v1.5.1PL0 Copyright (c) Steve Scherf et al.
# Submitted via: FreeRIP 2.51 
#
DISCID=ea0f5e10
DTITLE=Various Artist - So In Love - Disk 1
DYEAR=1991
DGENRE=Easy Listening
TTITLE0=Endless Love
TTITLE1=Miss You Like Crazy
TTITLE2=Here We Are
TTITLE3=The One That You Love
TTITLE4=A Little In Love
TTITLE5=Sexual Healing
TTITLE6=With You I'm Born Again
TTITLE7=True Love
TTITLE8=Sara Smile
TTITLE9=I'm Stone In Love With You
TTITLE10=Reunited
TTITLE11=The Miracle Of Love
TTITLE12=Baby I Love Your Way
TTITLE13=Second Chance
TTITLE14=The Things We Do For Love
TTITLE15=I Still Haven't Found What I'm Looking For
EXTD=
EXTT0=
EXTT1=
EXTT2=
EXTT3=
EXTT4=
EXTT5=
EXTT6=
EXTT7=
EXTT8=
EXTT9=
EXTT10=
EXTT11=
EXTT12=
EXTT13=
EXTT14=
EXTT15=
PLAYORDER=
